<svg width="534" height="666" viewBox="0 0 534 666" fill="none" xmlns="http://www.w3.org/2000/svg">
<path fill-rule="evenodd" clip-rule="evenodd" d="M304 0H112C50.1441 0 0 50.1441 0 112V554C0 615.856 50.1441 666 112 666H422C483.856 666 534 615.856 534 554V226H533.958C533.331 203.664 525.729 183.072 513.252 166.327L371.46 24.5344C353.214 9.22159 329.684 0 304 0ZM305 67V67.0375C305.497 67.0126 305.997 67 306.5 67C314.315 67 321.421 70.0391 326.699 75H326.925L459 207.075V207.301C463.855 212.466 466.869 219.382 466.996 227H467V569C467 586.121 453.121 600 436 600H98C80.8792 600 67 586.121 67 569V98C67 80.8792 80.8792 67 98 67H305Z"/>
<path fill-rule="evenodd" clip-rule="evenodd" d="M383 388.255V376.745C380.277 361.263 366.762 349.5 350.5 349.5H300V299C300 280.775 285.225 266 267 266C248.775 266 234 280.775 234 299V349.5H183.5C165.275 349.5 150.5 364.275 150.5 382.5C150.5 400.725 165.275 415.5 183.5 415.5H234V466C234 484.225 248.775 499 267 499C285.225 499 300 484.225 300 466V415.5H350.5C366.762 415.5 380.277 403.737 383 388.255Z"/>
</svg>
