<svg width="661" height="594" viewBox="0 0 661 594" fill="none" xmlns="http://www.w3.org/2000/svg">
<path fill-rule="evenodd" clip-rule="evenodd" d="M385.243 516.521C359.1 501.762 317.945 495.499 245.784 497.308L245.205 497.323L244.626 497.316C172.973 496.436 131.457 503.011 104.777 517.943C85.2097 528.894 70.645 546.151 58.8408 577.489L58.48 577.361C53.3006 587.252 42.9384 594 31 594C13.8792 594 0 580.121 0 563C0 560.923 0.204308 558.893 0.59391 556.931L0.375152 556.853C15.6602 515.774 37.9729 484.282 74.4968 463.84C116.579 440.288 172.66 434.462 244.809 435.313C317.355 433.53 373.655 438.782 415.722 462.53C449.384 481.532 470.609 510.267 485.364 547.232L484.835 547.47C487.484 552.036 489 557.341 489 563C489 580.121 475.121 594 458 594C445.999 594 435.59 587.18 430.439 577.205C418.819 544.834 404.488 527.384 385.243 516.521Z" />
<path fill-rule="evenodd" clip-rule="evenodd" d="M244.5 406C330.38 406 400 336.38 400 250.5C400 164.62 330.38 95 244.5 95C158.62 95 89 164.62 89 250.5C89 336.38 158.62 406 244.5 406ZM244.5 336C291.72 336 330 297.72 330 250.5C330 203.28 291.72 165 244.5 165C197.28 165 159 203.28 159 250.5C159 297.72 197.28 336 244.5 336Z" />
<rect x="472" y="57" width="51" height="211" rx="25.5" />
<rect x="603" y="137" width="51" height="211" rx="25.5" transform="rotate(90 603 137)" />
</svg>
