<svg width="603" height="537" viewBox="0 0 603 537" fill="none" xmlns="http://www.w3.org/2000/svg">
<rect x="472" width="51" height="211" rx="25.5"/>
<rect x="603" y="80" width="51" height="211" rx="25.5" transform="rotate(90 603 80)"/>
<path fill-rule="evenodd" clip-rule="evenodd" d="M244.5 349C330.38 349 400 279.38 400 193.5C400 107.62 330.38 38 244.5 38C158.62 38 89 107.62 89 193.5C89 279.38 158.62 349 244.5 349ZM244.5 293C299.452 293 344 248.452 344 193.5C344 138.548 299.452 94 244.5 94C189.548 94 145 138.548 145 193.5C145 248.452 189.548 293 244.5 293Z"/>
<path fill-rule="evenodd" clip-rule="evenodd" d="M385.243 459.521C359.1 444.762 317.945 438.499 245.784 440.308L245.205 440.323L244.626 440.316C172.973 439.436 131.457 446.011 104.777 460.943C85.2097 471.894 70.645 489.151 58.8408 520.489L58.48 520.361C53.3006 530.252 42.9384 537 31 537C13.8792 537 0 523.121 0 506C0 503.923 0.204308 501.893 0.59391 499.931L0.375152 499.853C15.6602 458.774 37.9729 427.282 74.4968 406.84C116.579 383.288 172.66 377.462 244.809 378.313C317.355 376.53 373.655 381.782 415.722 405.529C449.384 424.532 470.609 453.267 485.364 490.232L484.835 490.47C487.484 495.036 489 500.341 489 506C489 523.121 475.121 537 458 537C445.999 537 435.59 530.18 430.439 520.205C418.819 487.834 404.488 470.384 385.243 459.521Z"/>
</svg>
