<svg width="300" height="300" viewBox="0 0 300 300" fill="none" xmlns="http://www.w3.org/2000/svg">
<rect width="300" height="300" rx="70" fill="#82C0CB"/>
<path
  d="M90.9258 197L84.7148 176.609H53.4844L47.2734 197H27.7031L57.9375 110.984H80.1445L110.496 197H90.9258ZM80.3789 161.375L74.168 141.453C73.7773 140.125 73.25 138.426 72.5859 136.355C71.9609 134.246 71.3164 132.117 70.6523 129.969C70.0273 127.781 69.5195 125.887 69.1289 124.285C68.7383 125.887 68.1914 127.879 67.4883 130.262C66.8242 132.605 66.1797 134.832 65.5547 136.941C64.9297 139.051 64.4805 140.555 64.207 141.453L58.0547 161.375H80.3789ZM197.332 197H174.246L136.98 132.195H136.453C136.609 134.891 136.746 137.605 136.863 140.34C136.98 143.074 137.098 145.809 137.215 148.543C137.332 151.238 137.449 153.953 137.566 156.688V197H121.336V111.336H144.246L181.453 175.496H181.863C181.785 172.84 181.688 170.203 181.57 167.586C181.453 164.969 181.336 162.352 181.219 159.734C181.141 157.117 181.062 154.5 180.984 151.883V111.336H197.332V197ZM290.027 153.348C290.027 162.996 288.172 171.062 284.461 177.547C280.789 183.992 275.457 188.855 268.465 192.137C261.473 195.379 253.055 197 243.211 197H218.953V111.336H245.848C254.832 111.336 262.625 112.938 269.227 116.141C275.828 119.305 280.945 124.012 284.578 130.262C288.211 136.473 290.027 144.168 290.027 153.348ZM271.16 153.816C271.16 147.488 270.223 142.293 268.348 138.23C266.512 134.129 263.777 131.102 260.145 129.148C256.551 127.195 252.098 126.219 246.785 126.219H237.117V182H244.91C253.777 182 260.359 179.637 264.656 174.91C268.992 170.184 271.16 163.152 271.16 153.816Z" 
  fill="#141414"
/>
</svg>
