<svg width="567" height="507" viewBox="0 0 567 507" fill="none" xmlns="http://www.w3.org/2000/svg">
<path fill-rule="evenodd" clip-rule="evenodd" d="M322.5 311C408.38 311 478 241.38 478 155.5C478 69.6197 408.38 0 322.5 0C236.62 0 167 69.6197 167 155.5C167 241.38 236.62 311 322.5 311ZM322.5 255C377.452 255 422 210.452 422 155.5C422 100.548 377.452 56 322.5 56C267.548 56 223 100.548 223 155.5C223 210.452 267.548 255 322.5 255Z" />
<path fill-rule="evenodd" clip-rule="evenodd" d="M36.6081 266.102L43.6831 249.233L74.2428 217.768L93.8728 207.962L283.705 403.416L291 469.478L226.839 461.967L36.6081 266.102ZM17.7665 225.703C15.6987 227.832 14.0413 230.345 12.882 233.109L1.89799 259.298C-1.86478 268.27 0.0712298 278.697 6.78251 285.607L205.253 489.956C208.956 493.769 213.806 496.177 219.01 496.786L301.251 506.414C316.043 508.146 328.556 495.263 326.874 480.033L317.523 395.355C316.931 389.997 314.592 385.004 310.889 381.191L112.555 176.983C105.58 169.801 94.9507 167.958 86.0752 172.392L57.4726 186.68C55.1501 187.84 53.0324 189.392 51.2071 191.272L17.7665 225.703Z"/>
<path fill-rule="evenodd" clip-rule="evenodd" d="M353 402.03V402C335.879 402 322 388.121 322 371C322 354.131 335.474 340.409 352.247 340.009C410.797 340.357 457.527 347.097 493.722 367.53C527.384 386.532 548.609 415.267 563.364 452.232L562.835 452.47C565.484 457.036 567 462.341 567 468C567 485.121 553.121 499 536 499C523.999 499 513.59 492.18 508.439 482.205C496.819 449.834 482.488 432.384 463.243 421.521C440.854 408.882 407.455 402.473 353 402.03Z"/>
</svg>
