<svg width="48" height="48" viewBox="0 0 48 48" fill="none" xmlns="http://www.w3.org/2000/svg">
<path fill-rule="evenodd" clip-rule="evenodd" d="M23.99 4C12.94 4 4 12.95 4 24C4 33.7654 10.9822 41.8906 20.2324 43.6479L20 43.5V40L18.7559 39.1114C15.1 37.8449 12.0606 35.2938 10.15 32H16H16.05H20.18H27.82H31.95H32H37.85H42.3356C43.4061 29.5504 44 26.8448 44 24C44 12.95 35.04 4 23.99 4ZM37.84 16H31.94C31.29 13.5 30.38 11.1 29.18 8.88C32.86 10.14 35.92 12.69 37.84 16ZM24 8.07C25.67 10.47 26.97 13.14 27.82 16H20.18C21.03 13.14 22.33 10.47 24 8.07ZM8.52 28C8.19 26.72 8 25.38 8 24C8 22.62 8.19 21.28 8.52 20H15.27C15.11 21.31 15 22.64 15 24C15 25.36 15.11 26.69 15.28 28H8.52ZM16.05 16H10.15C12.07 12.69 15.13 10.13 18.81 8.87C17.61 11.1 16.7 13.5 16.05 16ZM19.32 28C19.13 26.69 19 25.36 19 24C19 22.64 19.13 21.31 19.32 20H28.68C28.87 21.31 29 22.64 29 24C29 25.36 28.87 26.69 28.68 28H19.32ZM32.72 28C32.88 26.69 33 25.36 33 24C33 22.64 32.89 21.31 32.72 20H39.47C39.8 21.28 40 22.62 40 24C40 25.38 39.81 26.72 39.47 28H32.72Z" />
<path d="M27.5684 34.3906C28.1465 34.3906 28.6426 34.5098 29.0566 34.748C29.4707 34.9863 29.7891 35.3242 30.0117 35.7617C30.2344 36.1992 30.3457 36.7227 30.3457 37.332V38.0703H26.0156C26.0312 38.6992 26.1992 39.1836 26.5195 39.5234C26.8438 39.8633 27.2969 40.0332 27.8789 40.0332C28.293 40.0332 28.6641 39.9941 28.9922 39.916C29.3242 39.834 29.666 39.7148 30.0176 39.5586V40.6777C29.6934 40.8301 29.3633 40.9414 29.0273 41.0117C28.6914 41.082 28.2891 41.1172 27.8203 41.1172C27.1836 41.1172 26.623 40.9941 26.1387 40.748C25.6582 40.498 25.2812 40.127 25.0078 39.6348C24.7383 39.1426 24.6035 38.5312 24.6035 37.8008C24.6035 37.0742 24.7266 36.457 24.9727 35.9492C25.2188 35.4414 25.5645 35.0547 26.0098 34.7891C26.4551 34.5234 26.9746 34.3906 27.5684 34.3906ZM27.5684 35.4277C27.1348 35.4277 26.7832 35.5684 26.5137 35.8496C26.248 36.1309 26.0918 36.543 26.0449 37.0859H28.998C28.9941 36.7617 28.9395 36.4746 28.834 36.2246C28.7324 35.9746 28.5762 35.7793 28.3652 35.6387C28.1582 35.498 27.8926 35.4277 27.5684 35.4277ZM35.2793 34.3906C36.0098 34.3906 36.5781 34.5801 36.9844 34.959C37.3945 35.334 37.5996 35.9375 37.5996 36.7695V41H36.2227V37.0273C36.2227 36.5234 36.1191 36.1465 35.9121 35.8965C35.7051 35.6426 35.3848 35.5156 34.9512 35.5156C34.3223 35.5156 33.8848 35.709 33.6387 36.0957C33.3965 36.4824 33.2754 37.043 33.2754 37.7773V41H31.8984V34.5137H32.9707L33.1641 35.3926H33.2402C33.3809 35.166 33.5547 34.9805 33.7617 34.8359C33.9727 34.6875 34.207 34.5762 34.4648 34.502C34.7266 34.4277 34.998 34.3906 35.2793 34.3906Z" />
</svg>
