<svg width="16" height="23" viewBox="0 0 16 23" fill="none" xmlns="http://www.w3.org/2000/svg">
<path fill-rule="evenodd" clip-rule="evenodd" d="M9.93767 1.23485C11.0933 1.52203 12.1703 2.06359 13.09 2.82001V2.80001C14.7159 4.14149 15.7466 6.07044 15.9582 8.16763C16.1698 10.2648 15.5451 12.3608 14.22 14C13.4637 14.8944 13.0336 16.0192 13 17.19V20C13 20.7957 12.6839 21.5587 12.1213 22.1213C11.5587 22.6839 10.7957 23 10 23H6C5.20436 23 4.44129 22.6839 3.87868 22.1213C3.31607 21.5587 3 20.7957 3 20V17C2.96704 15.9395 2.56369 14.9241 1.86 14.13C1.10176 13.2163 0.554476 12.1466 0.257174 10.9971C-0.0401439 9.84766 -0.0801525 8.64673 0.140001 7.48001C0.441469 5.92394 1.19838 4.49249 2.31468 3.36729C3.43099 2.24208 4.85639 1.47383 6.41001 1.16C7.5768 0.922096 8.782 0.94767 9.93767 1.23485ZM10.7071 20.7071C10.8947 20.5196 11 20.2652 11 20V19H5V20C5 20.2652 5.10536 20.5196 5.29289 20.7071C5.48044 20.8947 5.73479 21 6 21H10C10.2652 21 10.5196 20.8947 10.7071 20.7071ZM11 17C11.0779 15.442 11.6645 13.9526 12.67 12.76C13.5371 11.6995 14.0074 10.3699 14 9.00001C14.0005 8.10915 13.8026 7.22937 13.4207 6.42452C13.0388 5.61968 12.4824 4.90999 11.7921 4.34696C11.1017 3.78394 10.2946 3.38171 9.42937 3.16948C8.56417 2.95725 7.66255 2.94035 6.79001 3.12001C5.77472 3.33021 4.83122 3.79992 4.05153 4.48333C3.27182 5.16675 2.68253 6.04055 2.3411 7.01954C1.99965 7.99852 1.91774 9.04928 2.10332 10.0694C2.2889 11.0894 2.73564 12.044 3.40001 12.84C4.40695 13.9948 4.97362 15.4681 5 17L6 17L5.5 15L3.67775 11.5152C3.24686 10.7764 3 9.91701 3 9C3 6.23858 5.23857 4 8 4C10.7614 4 13 6.23858 13 9C13 9.98801 12.7134 10.9091 12.2189 11.6847L10.5 15L10 17L11 17Z"/>
</svg>
