<svg width="48" height="48" viewBox="0 0 48 48" fill="none" xmlns="http://www.w3.org/2000/svg">
<path fill-rule="evenodd" clip-rule="evenodd" d="M23.99 4C12.94 4 4 12.95 4 24C4 33.7654 10.9822 41.8906 20.2324 43.6479L20 43.5V40L18.7559 39.1114C15.1 37.8449 12.0606 35.2938 10.15 32H16H16.05H20.18H27.82H31.95H32H37.85H42.3356C43.4061 29.5504 44 26.8448 44 24C44 12.95 35.04 4 23.99 4ZM37.84 16H31.94C31.29 13.5 30.38 11.1 29.18 8.88C32.86 10.14 35.92 12.69 37.84 16ZM24 8.07C25.67 10.47 26.97 13.14 27.82 16H20.18C21.03 13.14 22.33 10.47 24 8.07ZM8.52 28C8.19 26.72 8 25.38 8 24C8 22.62 8.19 21.28 8.52 20H15.27C15.11 21.31 15 22.64 15 24C15 25.36 15.11 26.69 15.28 28H8.52ZM16.05 16H10.15C12.07 12.69 15.13 10.13 18.81 8.87C17.61 11.1 16.7 13.5 16.05 16ZM19.32 28C19.13 26.69 19 25.36 19 24C19 22.64 19.13 21.31 19.32 20H28.68C28.87 21.31 29 22.64 29 24C29 25.36 28.87 26.69 28.68 28H19.32ZM32.72 28C32.88 26.69 33 25.36 33 24C33 22.64 32.89 21.31 32.72 20H39.47C39.8 21.28 40 22.62 40 24C40 25.38 39.81 26.72 39.47 28H32.72Z" />
<path d="M29.5938 34.4922C30.235 34.4922 30.7493 34.7266 31.1367 35.1953C31.5273 35.6641 31.7227 36.3607 31.7227 37.2852C31.7227 37.8971 31.6315 38.4131 31.4492 38.833C31.2702 39.2497 31.0179 39.5654 30.6924 39.7803C30.3701 39.9919 29.9941 40.0977 29.5645 40.0977C29.291 40.0977 29.0534 40.0618 28.8516 39.9902C28.6497 39.9186 28.4772 39.8258 28.334 39.7119C28.1908 39.5947 28.0703 39.4678 27.9727 39.3311H27.9043C27.9206 39.4613 27.9352 39.6061 27.9482 39.7656C27.9645 39.9219 27.9727 40.0651 27.9727 40.1953V42.3975H26.8203V34.5947H27.7578L27.9189 35.3418H27.9727C28.0736 35.1888 28.1956 35.0472 28.3389 34.917C28.4854 34.7868 28.6611 34.6842 28.8662 34.6094C29.0745 34.5312 29.3171 34.4922 29.5938 34.4922ZM29.2861 35.4297C28.9704 35.4297 28.7165 35.4932 28.5244 35.6201C28.3356 35.7438 28.1973 35.931 28.1094 36.1816C28.0247 36.4323 27.9792 36.7464 27.9727 37.124V37.2852C27.9727 37.6855 28.0133 38.0257 28.0947 38.3057C28.1794 38.5824 28.3177 38.7939 28.5098 38.9404C28.7051 39.0837 28.9688 39.1553 29.3008 39.1553C29.5807 39.1553 29.8118 39.0788 29.9941 38.9258C30.1797 38.7728 30.318 38.5547 30.4092 38.2715C30.5003 37.9883 30.5459 37.6546 30.5459 37.2705C30.5459 36.6878 30.4417 36.2354 30.2334 35.9131C30.0283 35.5908 29.7126 35.4297 29.2861 35.4297ZM32.2354 34.5947H33.4854L34.5938 37.6807C34.6426 37.8206 34.6865 37.959 34.7256 38.0957C34.7679 38.2292 34.8037 38.361 34.833 38.4912C34.8656 38.6214 34.8916 38.7516 34.9111 38.8818H34.9404C34.973 38.7126 35.0186 38.5238 35.0771 38.3154C35.139 38.1038 35.2074 37.8923 35.2822 37.6807L36.3467 34.5947H37.582L35.2627 40.7422C35.1292 41.0938 34.9648 41.3932 34.7695 41.6406C34.5775 41.8913 34.3496 42.0801 34.0859 42.207C33.8223 42.3372 33.5212 42.4023 33.1826 42.4023C33.0199 42.4023 32.8783 42.3926 32.7578 42.373C32.6374 42.3568 32.5348 42.3389 32.4502 42.3193V41.4014C32.5186 41.4176 32.6048 41.4323 32.709 41.4453C32.8132 41.4583 32.9206 41.4648 33.0312 41.4648C33.2363 41.4648 33.4137 41.4242 33.5635 41.3428C33.7132 41.2614 33.8402 41.1458 33.9443 40.9961C34.0485 40.8496 34.1348 40.682 34.2031 40.4932L34.3936 39.9854L32.2354 34.5947Z"/>
</svg>
