<svg width="24" height="24" viewBox="0 0 24 24" fill="none" xmlns="http://www.w3.org/2000/svg">
  <path
    d="M17.09 2.82001C16.1703 2.06359 15.0933 1.52204 13.9377 1.23485C12.782 0.947666 11.5768 0.922096 10.41 1.16001C8.85638 1.47383 7.43099 2.24208 6.31469 3.36729C5.19838 4.49249 4.44147 5.92394 4.14 7.48001C3.91985 8.64673 3.95985 9.84766 4.25716 10.9971C4.55448 12.1466 5.10177 13.2163 5.86 14.13C6.56369 14.9241 6.96704 15.9395 7 17V20C7 20.7957 7.31607 21.5587 7.87868 22.1213C8.44129 22.6839 9.20435 23 10 23H14C14.7957 23 15.5587 22.6839 16.1213 22.1213C16.6839 21.5587 17 20.7957 17 20V17.19C17.0336 16.0192 17.4637 14.8944 18.22 14C19.5451 12.3608 20.1698 10.2648 19.9582 8.16763C19.7466 6.07044 18.7159 4.14149 17.09 2.80001V2.82001ZM15 20C15 20.2652 14.8946 20.5196 14.7071 20.7071C14.5196 20.8947 14.2652 21 14 21H10C9.73479 21 9.48043 20.8947 9.2929 20.7071C9.10536 20.5196 9 20.2652 9 20V19H15V20ZM16.67 12.76C15.6645 13.9526 15.0779 15.442 15 17H13V14C13 13.7348 12.8946 13.4804 12.7071 13.2929C12.5196 13.1054 12.2652 13 12 13C11.7348 13 11.4804 13.1054 11.2929 13.2929C11.1054 13.4804 11 13.7348 11 14V17H9C8.97362 15.4681 8.40695 13.9948 7.4 12.84C6.73564 12.044 6.28889 11.0894 6.10331 10.0694C5.91773 9.04928 5.99965 7.99852 6.34109 7.01954C6.68253 6.04055 7.27182 5.16675 8.05153 4.48333C8.83123 3.79992 9.77472 3.33021 10.79 3.12001C11.6626 2.94035 12.5642 2.95725 13.4294 3.16948C14.2946 3.3817 15.1017 3.78393 15.7921 4.34696C16.4824 4.90999 17.0388 5.61969 17.4207 6.42453C17.8026 7.22937 18.0005 8.10915 18 9.00001C18.0074 10.3699 17.5371 11.6995 16.67 12.76Z"
     />
  <g clip-path="url(#clip0_1_12)">
    <path
      d="M-231.9 228.117C-192.517 218.367 -151.933 207.4 -122.817 207.4C-111.433 207.4 -101.8 209.083 -94.6833 213.15C-70.1167 227.233 -56.05 284.283 -40.6 338.183C-19.9833 342.1 1.23333 344.333 23 344.333C44.7667 344.333 65.9833 342.1 86.6 338.2C102.033 284.3 116.117 227.25 140.667 213.183C147.783 209.1 157.417 207.433 168.8 207.433C197.917 207.433 238.517 218.4 277.883 228.15C304.633 197.35 325.633 161.65 339.65 122.6C300.583 82.5 258.45 41.0834 258.45 11.0334C258.45 -19.0333 300.583 -60.4333 339.65 -100.533C325.633 -139.583 304.633 -175.283 277.883 -206.083C238.5 -196.333 197.917 -185.367 168.8 -185.367C157.417 -185.367 147.783 -187.05 140.667 -191.117C116.1 -205.2 102.033 -262.25 86.5833 -316.15C65.9833 -320.1 44.7667 -322.333 23 -322.333C1.23333 -322.333 -19.9833 -320.1 -40.6 -316.2C-56.0333 -262.3 -70.1167 -205.25 -94.6833 -191.183C-101.8 -187.1 -111.433 -185.433 -122.817 -185.433C-151.933 -185.433 -192.533 -196.4 -231.9 -206.15C-258.65 -175.317 -279.65 -139.633 -293.667 -100.567C-254.6 -60.4667 -212.467 -19.0667 -212.467 11C-212.467 41.0667 -254.583 82.4667 -293.667 122.567C-279.65 161.617 -258.65 197.317 -231.9 228.117ZM-77 11C-77 -44.2333 -32.2333 -89 23 -89C78.2333 -89 123 -44.2333 123 11C123 66.2333 78.2333 111 23 111C-32.2333 111 -77 66.2333 -77 11Z"
     />
    <g clip-path="url(#clip1_1_12)">
      <path
        d="M8.81376 5.28604C9.30605 5.40792 9.81334 5.545 10.1773 5.545C10.3196 5.545 10.44 5.52396 10.529 5.47312C10.836 5.29708 11.0119 4.58396 11.205 3.91021C11.4627 3.86125 11.7279 3.83333 12 3.83333C12.2721 3.83333 12.5373 3.86125 12.795 3.91C12.9879 4.58375 13.164 5.29687 13.4708 5.47271C13.5598 5.52375 13.6802 5.54458 13.8225 5.54458C14.1865 5.54458 14.694 5.4075 15.186 5.28562C15.5204 5.67062 15.7829 6.11687 15.9581 6.605C15.4698 7.10625 14.9431 7.62396 14.9431 7.99958C14.9431 8.37541 15.4698 8.89291 15.9581 9.39416C15.7829 9.88229 15.5204 10.3285 15.186 10.7135C14.6938 10.5917 14.1865 10.4546 13.8225 10.4546C13.6802 10.4546 13.5598 10.4756 13.4708 10.5265C13.1638 10.7025 12.9879 11.4156 12.7948 12.0894C12.5373 12.1387 12.2721 12.1667 12 12.1667C11.7279 12.1667 11.4627 12.1387 11.205 12.09C11.0121 11.4162 10.836 10.7031 10.529 10.5273C10.44 10.4762 10.3196 10.4554 10.1773 10.4554C9.81334 10.4554 9.30584 10.5925 8.81376 10.7144C8.47938 10.329 8.21688 9.88291 8.04167 9.39458C8.53001 8.89333 9.05667 8.37583 9.05667 8C9.05667 7.62416 8.53021 7.10666 8.04167 6.60542C8.21688 6.11729 8.47938 5.67104 8.81376 5.28604ZM10.75 8C10.75 8.69041 11.3096 9.25 12 9.25C12.6904 9.25 13.25 8.69041 13.25 8C13.25 7.30958 12.6904 6.75 12 6.75C11.3096 6.75 10.75 7.30958 10.75 8Z"
         />
    </g>
  </g>
  <defs>
    <clipPath id="clip0_1_12">
      <rect width="800" height="800" fill="white" transform="translate(-377 -389)" />
    </clipPath>
    <clipPath id="clip1_1_12">
      <rect width="10" height="10" fill="white" transform="matrix(1 0 0 -1 7 13)" />
    </clipPath>
  </defs>
</svg>